<?xml version="1.0" encoding="us-ascii" standalone="no"?><svg xmlns="http://www.w3.org/2000/svg" xmlns:xlink="http://www.w3.org/1999/xlink" contentStyleType="text/css" height="690px" preserveAspectRatio="none" style="width:1772px;height:690px;background:#FFFFFF;" version="1.1" viewBox="0 0 1772 690" width="1772px" zoomAndPan="magnify"><defs/><g><!--class Entity--><g id="elem_Entity"><rect codeLine="2" fill="#F1F1F1" height="32" id="Entity" rx="2.5" ry="2.5" style="stroke:#181818;stroke-width:0.5;" width="70" x="597" y="99"/><ellipse cx="612" cy="115" fill="#ADD1B2" rx="11" ry="11" style="stroke:#181818;stroke-width:1.0;"/><path d="M614.9688,120.6406 Q614.3906,120.9375 613.75,121.0781 Q613.1094,121.2344 612.4063,121.2344 Q609.9063,121.2344 608.5781,119.5938 Q607.2656,117.9375 607.2656,114.8125 Q607.2656,111.6875 608.5781,110.0313 Q609.9063,108.375 612.4063,108.375 Q613.1094,108.375 613.75,108.5313 Q614.4063,108.6875 614.9688,108.9844 L614.9688,111.7031 Q614.3438,111.125 613.75,110.8594 Q613.1563,110.5781 612.5313,110.5781 Q611.1875,110.5781 610.5,111.6563 Q609.8125,112.7188 609.8125,114.8125 Q609.8125,116.9063 610.5,117.9844 Q611.1875,119.0469 612.5313,119.0469 Q613.1563,119.0469 613.75,118.7813 Q614.3438,118.5 614.9688,117.9219 L614.9688,120.6406 Z " fill="#000000"/><text fill="#000000" font-family="sans-serif" font-size="14" lengthAdjust="spacing" textLength="38" x="626" y="119.8467">Entity</text></g><!--class FamixBaseElement--><g id="elem_FamixBaseElement"><rect codeLine="497" fill="#F1F1F1" height="32" id="FamixBaseElement" rx="2.5" ry="2.5" style="stroke:#181818;stroke-width:0.5;" width="163" x="550.5" y="7"/><ellipse cx="565.5" cy="23" fill="#A9DCDF" rx="11" ry="11" style="stroke:#181818;stroke-width:1.0;"/><path d="M565.6094,18.3438 L564.4531,23.4219 L566.7813,23.4219 L565.6094,18.3438 Z M564.125,16.1094 L567.1094,16.1094 L570.4688,28.5 L568.0156,28.5 L567.25,25.4375 L563.9688,25.4375 L563.2188,28.5 L560.7813,28.5 L564.125,16.1094 Z " fill="#000000"/><text fill="#000000" font-family="sans-serif" font-size="14" font-style="italic" lengthAdjust="spacing" textLength="131" x="579.5" y="27.8467">FamixBaseElement</text></g><!--class SourceLanguage--><g id="elem_SourceLanguage"><rect codeLine="6" fill="#F1F1F1" height="32" id="SourceLanguage" rx="2.5" ry="2.5" style="stroke:#181818;stroke-width:0.5;" width="149" x="229.5" y="191"/><ellipse cx="244.5" cy="207" fill="#ADD1B2" rx="11" ry="11" style="stroke:#181818;stroke-width:1.0;"/><path d="M247.4688,212.6406 Q246.8906,212.9375 246.25,213.0781 Q245.6094,213.2344 244.9063,213.2344 Q242.4063,213.2344 241.0781,211.5938 Q239.7656,209.9375 239.7656,206.8125 Q239.7656,203.6875 241.0781,202.0313 Q242.4063,200.375 244.9063,200.375 Q245.6094,200.375 246.25,200.5313 Q246.9063,200.6875 247.4688,200.9844 L247.4688,203.7031 Q246.8438,203.125 246.25,202.8594 Q245.6563,202.5781 245.0313,202.5781 Q243.6875,202.5781 243,203.6563 Q242.3125,204.7188 242.3125,206.8125 Q242.3125,208.9063 243,209.9844 Q243.6875,211.0469 245.0313,211.0469 Q245.6563,211.0469 246.25,210.7813 Q246.8438,210.5 247.4688,209.9219 L247.4688,212.6406 Z " fill="#000000"/><text fill="#000000" font-family="sans-serif" font-size="14" lengthAdjust="spacing" textLength="117" x="258.5" y="211.8467">SourceLanguage</text></g><!--class Comment--><g id="elem_Comment"><rect codeLine="13" fill="#F1F1F1" height="32" id="Comment" rx="2.5" ry="2.5" style="stroke:#181818;stroke-width:0.5;" width="100" x="441" y="283"/><ellipse cx="456" cy="299" fill="#ADD1B2" rx="11" ry="11" style="stroke:#181818;stroke-width:1.0;"/><path d="M458.9688,304.6406 Q458.3906,304.9375 457.75,305.0781 Q457.1094,305.2344 456.4063,305.2344 Q453.9063,305.2344 452.5781,303.5938 Q451.2656,301.9375 451.2656,298.8125 Q451.2656,295.6875 452.5781,294.0313 Q453.9063,292.375 456.4063,292.375 Q457.1094,292.375 457.75,292.5313 Q458.4063,292.6875 458.9688,292.9844 L458.9688,295.7031 Q458.3438,295.125 457.75,294.8594 Q457.1563,294.5781 456.5313,294.5781 Q455.1875,294.5781 454.5,295.6563 Q453.8125,296.7188 453.8125,298.8125 Q453.8125,300.9063 454.5,301.9844 Q455.1875,303.0469 456.5313,303.0469 Q457.1563,303.0469 457.75,302.7813 Q458.3438,302.5 458.9688,301.9219 L458.9688,304.6406 Z " fill="#000000"/><text fill="#000000" font-family="sans-serif" font-size="14" lengthAdjust="spacing" textLength="68" x="470" y="303.8467">Comment</text></g><!--class SourcedEntity--><g id="elem_SourcedEntity"><rect codeLine="33" fill="#F1F1F1" height="32" id="SourcedEntity" rx="2.5" ry="2.5" style="stroke:#181818;stroke-width:0.5;" width="128" x="568" y="191"/><ellipse cx="583" cy="207" fill="#ADD1B2" rx="11" ry="11" style="stroke:#181818;stroke-width:1.0;"/><path d="M585.9688,212.6406 Q585.3906,212.9375 584.75,213.0781 Q584.1094,213.2344 583.4063,213.2344 Q580.9063,213.2344 579.5781,211.5938 Q578.2656,209.9375 578.2656,206.8125 Q578.2656,203.6875 579.5781,202.0313 Q580.9063,200.375 583.4063,200.375 Q584.1094,200.375 584.75,200.5313 Q585.4063,200.6875 585.9688,200.9844 L585.9688,203.7031 Q585.3438,203.125 584.75,202.8594 Q584.1563,202.5781 583.5313,202.5781 Q582.1875,202.5781 581.5,203.6563 Q580.8125,204.7188 580.8125,206.8125 Q580.8125,208.9063 581.5,209.9844 Q582.1875,211.0469 583.5313,211.0469 Q584.1563,211.0469 584.75,210.7813 Q585.3438,210.5 585.9688,209.9219 L585.9688,212.6406 Z " fill="#000000"/><text fill="#000000" font-family="sans-serif" font-size="14" lengthAdjust="spacing" textLength="96" x="597" y="211.8467">SourcedEntity</text></g><!--class SourceAnchor--><g id="elem_SourceAnchor"><rect codeLine="26" fill="#F1F1F1" height="32" id="SourceAnchor" rx="2.5" ry="2.5" style="stroke:#181818;stroke-width:0.5;" width="130" x="1081" y="191"/><ellipse cx="1096" cy="207" fill="#ADD1B2" rx="11" ry="11" style="stroke:#181818;stroke-width:1.0;"/><path d="M1098.9688,212.6406 Q1098.3906,212.9375 1097.75,213.0781 Q1097.1094,213.2344 1096.4063,213.2344 Q1093.9063,213.2344 1092.5781,211.5938 Q1091.2656,209.9375 1091.2656,206.8125 Q1091.2656,203.6875 1092.5781,202.0313 Q1093.9063,200.375 1096.4063,200.375 Q1097.1094,200.375 1097.75,200.5313 Q1098.4063,200.6875 1098.9688,200.9844 L1098.9688,203.7031 Q1098.3438,203.125 1097.75,202.8594 Q1097.1563,202.5781 1096.5313,202.5781 Q1095.1875,202.5781 1094.5,203.6563 Q1093.8125,204.7188 1093.8125,206.8125 Q1093.8125,208.9063 1094.5,209.9844 Q1095.1875,211.0469 1096.5313,211.0469 Q1097.1563,211.0469 1097.75,210.7813 Q1098.3438,210.5 1098.9688,209.9219 L1098.9688,212.6406 Z " fill="#000000"/><text fill="#000000" font-family="sans-serif" font-size="14" lengthAdjust="spacing" textLength="98" x="1110" y="211.8467">SourceAnchor</text></g><!--class Association--><g id="elem_Association"><rect codeLine="49" fill="#F1F1F1" height="32" id="Association" rx="2.5" ry="2.5" style="stroke:#181818;stroke-width:0.5;" width="111" x="576.5" y="283"/><ellipse cx="591.5" cy="299" fill="#ADD1B2" rx="11" ry="11" style="stroke:#181818;stroke-width:1.0;"/><path d="M594.4688,304.6406 Q593.8906,304.9375 593.25,305.0781 Q592.6094,305.2344 591.9063,305.2344 Q589.4063,305.2344 588.0781,303.5938 Q586.7656,301.9375 586.7656,298.8125 Q586.7656,295.6875 588.0781,294.0313 Q589.4063,292.375 591.9063,292.375 Q592.6094,292.375 593.25,292.5313 Q593.9063,292.6875 594.4688,292.9844 L594.4688,295.7031 Q593.8438,295.125 593.25,294.8594 Q592.6563,294.5781 592.0313,294.5781 Q590.6875,294.5781 590,295.6563 Q589.3125,296.7188 589.3125,298.8125 Q589.3125,300.9063 590,301.9844 Q590.6875,303.0469 592.0313,303.0469 Q592.6563,303.0469 593.25,302.7813 Q593.8438,302.5 594.4688,301.9219 L594.4688,304.6406 Z " fill="#000000"/><text fill="#000000" font-family="sans-serif" font-size="14" lengthAdjust="spacing" textLength="79" x="605.5" y="303.8467">Association</text></g><!--class Namespace--><g id="elem_Namespace"><rect codeLine="59" fill="#F1F1F1" height="32" id="Namespace" rx="2.5" ry="2.5" style="stroke:#181818;stroke-width:0.5;" width="114" x="7" y="559"/><ellipse cx="22" cy="575" fill="#ADD1B2" rx="11" ry="11" style="stroke:#181818;stroke-width:1.0;"/><path d="M24.9688,580.6406 Q24.3906,580.9375 23.75,581.0781 Q23.1094,581.2344 22.4063,581.2344 Q19.9063,581.2344 18.5781,579.5938 Q17.2656,577.9375 17.2656,574.8125 Q17.2656,571.6875 18.5781,570.0313 Q19.9063,568.375 22.4063,568.375 Q23.1094,568.375 23.75,568.5313 Q24.4063,568.6875 24.9688,568.9844 L24.9688,571.7031 Q24.3438,571.125 23.75,570.8594 Q23.1563,570.5781 22.5313,570.5781 Q21.1875,570.5781 20.5,571.6563 Q19.8125,572.7188 19.8125,574.8125 Q19.8125,576.9063 20.5,577.9844 Q21.1875,579.0469 22.5313,579.0469 Q23.1563,579.0469 23.75,578.7813 Q24.3438,578.5 24.9688,577.9219 L24.9688,580.6406 Z " fill="#000000"/><text fill="#000000" font-family="sans-serif" font-size="14" lengthAdjust="spacing" textLength="82" x="36" y="579.8467">Namespace</text></g><!--class ScopingEntity--><g id="elem_ScopingEntity"><rect codeLine="66" fill="#F1F1F1" height="32" id="ScopingEntity" rx="2.5" ry="2.5" style="stroke:#181818;stroke-width:0.5;" width="126" x="148" y="467"/><ellipse cx="163" cy="483" fill="#ADD1B2" rx="11" ry="11" style="stroke:#181818;stroke-width:1.0;"/><path d="M165.9688,488.6406 Q165.3906,488.9375 164.75,489.0781 Q164.1094,489.2344 163.4063,489.2344 Q160.9063,489.2344 159.5781,487.5938 Q158.2656,485.9375 158.2656,482.8125 Q158.2656,479.6875 159.5781,478.0313 Q160.9063,476.375 163.4063,476.375 Q164.1094,476.375 164.75,476.5313 Q165.4063,476.6875 165.9688,476.9844 L165.9688,479.7031 Q165.3438,479.125 164.75,478.8594 Q164.1563,478.5781 163.5313,478.5781 Q162.1875,478.5781 161.5,479.6563 Q160.8125,480.7188 160.8125,482.8125 Q160.8125,484.9063 161.5,485.9844 Q162.1875,487.0469 163.5313,487.0469 Q164.1563,487.0469 164.75,486.7813 Q165.3438,486.5 165.9688,485.9219 L165.9688,488.6406 Z " fill="#000000"/><text fill="#000000" font-family="sans-serif" font-size="14" lengthAdjust="spacing" textLength="94" x="177" y="487.8467">ScopingEntity</text></g><!--class ContainerEntity--><g id="elem_ContainerEntity"><rect codeLine="322" fill="#F1F1F1" height="32" id="ContainerEntity" rx="2.5" ry="2.5" style="stroke:#181818;stroke-width:0.5;" width="137" x="836.5" y="375"/><ellipse cx="851.5" cy="391" fill="#ADD1B2" rx="11" ry="11" style="stroke:#181818;stroke-width:1.0;"/><path d="M854.4688,396.6406 Q853.8906,396.9375 853.25,397.0781 Q852.6094,397.2344 851.9063,397.2344 Q849.4063,397.2344 848.0781,395.5938 Q846.7656,393.9375 846.7656,390.8125 Q846.7656,387.6875 848.0781,386.0313 Q849.4063,384.375 851.9063,384.375 Q852.6094,384.375 853.25,384.5313 Q853.9063,384.6875 854.4688,384.9844 L854.4688,387.7031 Q853.8438,387.125 853.25,386.8594 Q852.6563,386.5781 852.0313,386.5781 Q850.6875,386.5781 850,387.6563 Q849.3125,388.7188 849.3125,390.8125 Q849.3125,392.9063 850,393.9844 Q850.6875,395.0469 852.0313,395.0469 Q852.6563,395.0469 853.25,394.7813 Q853.8438,394.5 854.4688,393.9219 L854.4688,396.6406 Z " fill="#000000"/><text fill="#000000" font-family="sans-serif" font-size="14" lengthAdjust="spacing" textLength="105" x="865.5" y="395.8467">ContainerEntity</text></g><!--class ScriptEntity--><g id="elem_ScriptEntity"><rect codeLine="73" fill="#F1F1F1" height="32" id="ScriptEntity" rx="2.5" ry="2.5" style="stroke:#181818;stroke-width:0.5;" width="109" x="156.5" y="559"/><ellipse cx="171.5" cy="575" fill="#ADD1B2" rx="11" ry="11" style="stroke:#181818;stroke-width:1.0;"/><path d="M174.4688,580.6406 Q173.8906,580.9375 173.25,581.0781 Q172.6094,581.2344 171.9063,581.2344 Q169.4063,581.2344 168.0781,579.5938 Q166.7656,577.9375 166.7656,574.8125 Q166.7656,571.6875 168.0781,570.0313 Q169.4063,568.375 171.9063,568.375 Q172.6094,568.375 173.25,568.5313 Q173.9063,568.6875 174.4688,568.9844 L174.4688,571.7031 Q173.8438,571.125 173.25,570.8594 Q172.6563,570.5781 172.0313,570.5781 Q170.6875,570.5781 170,571.6563 Q169.3125,572.7188 169.3125,574.8125 Q169.3125,576.9063 170,577.9844 Q170.6875,579.0469 172.0313,579.0469 Q172.6563,579.0469 173.25,578.7813 Q173.8438,578.5 174.4688,577.9219 L174.4688,580.6406 Z " fill="#000000"/><text fill="#000000" font-family="sans-serif" font-size="14" lengthAdjust="spacing" textLength="77" x="185.5" y="579.8467">ScriptEntity</text></g><!--class Module--><g id="elem_Module"><rect codeLine="83" fill="#F1F1F1" height="32" id="Module" rx="2.5" ry="2.5" style="stroke:#181818;stroke-width:0.5;" width="83" x="148.5" y="651"/><ellipse cx="163.5" cy="667" fill="#ADD1B2" rx="11" ry="11" style="stroke:#181818;stroke-width:1.0;"/><path d="M166.4688,672.6406 Q165.8906,672.9375 165.25,673.0781 Q164.6094,673.2344 163.9063,673.2344 Q161.4063,673.2344 160.0781,671.5938 Q158.7656,669.9375 158.7656,666.8125 Q158.7656,663.6875 160.0781,662.0313 Q161.4063,660.375 163.9063,660.375 Q164.6094,660.375 165.25,660.5313 Q165.9063,660.6875 166.4688,660.9844 L166.4688,663.7031 Q165.8438,663.125 165.25,662.8594 Q164.6563,662.5781 164.0313,662.5781 Q162.6875,662.5781 162,663.6563 Q161.3125,664.7188 161.3125,666.8125 Q161.3125,668.9063 162,669.9844 Q162.6875,671.0469 164.0313,671.0469 Q164.6563,671.0469 165.25,670.7813 Q165.8438,670.5 166.4688,669.9219 L166.4688,672.6406 Z " fill="#000000"/><text fill="#000000" font-family="sans-serif" font-size="14" lengthAdjust="spacing" textLength="51" x="177.5" y="671.8467">Module</text></g><!--class ImportClause--><g id="elem_ImportClause"><rect codeLine="90" fill="#F1F1F1" height="32" id="ImportClause" rx="2.5" ry="2.5" style="stroke:#181818;stroke-width:0.5;" width="123" x="140.5" y="375"/><ellipse cx="155.5" cy="391" fill="#ADD1B2" rx="11" ry="11" style="stroke:#181818;stroke-width:1.0;"/><path d="M158.4688,396.6406 Q157.8906,396.9375 157.25,397.0781 Q156.6094,397.2344 155.9063,397.2344 Q153.4063,397.2344 152.0781,395.5938 Q150.7656,393.9375 150.7656,390.8125 Q150.7656,387.6875 152.0781,386.0313 Q153.4063,384.375 155.9063,384.375 Q156.6094,384.375 157.25,384.5313 Q157.9063,384.6875 158.4688,384.9844 L158.4688,387.7031 Q157.8438,387.125 157.25,386.8594 Q156.6563,386.5781 156.0313,386.5781 Q154.6875,386.5781 154,387.6563 Q153.3125,388.7188 153.3125,390.8125 Q153.3125,392.9063 154,393.9844 Q154.6875,395.0469 156.0313,395.0469 Q156.6563,395.0469 157.25,394.7813 Q157.8438,394.5 158.4688,393.9219 L158.4688,396.6406 Z " fill="#000000"/><text fill="#000000" font-family="sans-serif" font-size="14" lengthAdjust="spacing" textLength="91" x="169.5" y="395.8467">ImportClause</text></g><!--class Alias--><g id="elem_Alias"><rect codeLine="103" fill="#F1F1F1" height="32" id="Alias" rx="2.5" ry="2.5" style="stroke:#181818;stroke-width:0.5;" width="63" x="1008.5" y="375"/><ellipse cx="1023.5" cy="391" fill="#ADD1B2" rx="11" ry="11" style="stroke:#181818;stroke-width:1.0;"/><path d="M1026.4688,396.6406 Q1025.8906,396.9375 1025.25,397.0781 Q1024.6094,397.2344 1023.9063,397.2344 Q1021.4063,397.2344 1020.0781,395.5938 Q1018.7656,393.9375 1018.7656,390.8125 Q1018.7656,387.6875 1020.0781,386.0313 Q1021.4063,384.375 1023.9063,384.375 Q1024.6094,384.375 1025.25,384.5313 Q1025.9063,384.6875 1026.4688,384.9844 L1026.4688,387.7031 Q1025.8438,387.125 1025.25,386.8594 Q1024.6563,386.5781 1024.0313,386.5781 Q1022.6875,386.5781 1022,387.6563 Q1021.3125,388.7188 1021.3125,390.8125 Q1021.3125,392.9063 1022,393.9844 Q1022.6875,395.0469 1024.0313,395.0469 Q1024.6563,395.0469 1025.25,394.7813 Q1025.8438,394.5 1026.4688,393.9219 L1026.4688,396.6406 Z " fill="#000000"/><text fill="#000000" font-family="sans-serif" font-size="14" lengthAdjust="spacing" textLength="31" x="1037.5" y="395.8467">Alias</text></g><!--class NamedEntity--><g id="elem_NamedEntity"><rect codeLine="123" fill="#F1F1F1" height="32" id="NamedEntity" rx="2.5" ry="2.5" style="stroke:#181818;stroke-width:0.5;" width="119" x="912.5" y="283"/><ellipse cx="927.5" cy="299" fill="#ADD1B2" rx="11" ry="11" style="stroke:#181818;stroke-width:1.0;"/><path d="M930.4688,304.6406 Q929.8906,304.9375 929.25,305.0781 Q928.6094,305.2344 927.9063,305.2344 Q925.4063,305.2344 924.0781,303.5938 Q922.7656,301.9375 922.7656,298.8125 Q922.7656,295.6875 924.0781,294.0313 Q925.4063,292.375 927.9063,292.375 Q928.6094,292.375 929.25,292.5313 Q929.9063,292.6875 930.4688,292.9844 L930.4688,295.7031 Q929.8438,295.125 929.25,294.8594 Q928.6563,294.5781 928.0313,294.5781 Q926.6875,294.5781 926,295.6563 Q925.3125,296.7188 925.3125,298.8125 Q925.3125,300.9063 926,301.9844 Q926.6875,303.0469 928.0313,303.0469 Q928.6563,303.0469 929.25,302.7813 Q929.8438,302.5 930.4688,301.9219 L930.4688,304.6406 Z " fill="#000000"/><text fill="#000000" font-family="sans-serif" font-size="14" lengthAdjust="spacing" textLength="87" x="941.5" y="303.8467">NamedEntity</text></g><!--class Decorator--><g id="elem_Decorator"><rect codeLine="113" fill="#F1F1F1" height="32" id="Decorator" rx="2.5" ry="2.5" style="stroke:#181818;stroke-width:0.5;" width="101" x="1106.5" y="375"/><ellipse cx="1121.5" cy="391" fill="#ADD1B2" rx="11" ry="11" style="stroke:#181818;stroke-width:1.0;"/><path d="M1124.4688,396.6406 Q1123.8906,396.9375 1123.25,397.0781 Q1122.6094,397.2344 1121.9063,397.2344 Q1119.4063,397.2344 1118.0781,395.5938 Q1116.7656,393.9375 1116.7656,390.8125 Q1116.7656,387.6875 1118.0781,386.0313 Q1119.4063,384.375 1121.9063,384.375 Q1122.6094,384.375 1123.25,384.5313 Q1123.9063,384.6875 1124.4688,384.9844 L1124.4688,387.7031 Q1123.8438,387.125 1123.25,386.8594 Q1122.6563,386.5781 1122.0313,386.5781 Q1120.6875,386.5781 1120,387.6563 Q1119.3125,388.7188 1119.3125,390.8125 Q1119.3125,392.9063 1120,393.9844 Q1120.6875,395.0469 1122.0313,395.0469 Q1122.6563,395.0469 1123.25,394.7813 Q1123.8438,394.5 1124.4688,393.9219 L1124.4688,396.6406 Z " fill="#000000"/><text fill="#000000" font-family="sans-serif" font-size="14" lengthAdjust="spacing" textLength="69" x="1135.5" y="395.8467">Decorator</text></g><!--class Parameter--><g id="elem_Parameter"><rect codeLine="145" fill="#F1F1F1" height="32" id="Parameter" rx="2.5" ry="2.5" style="stroke:#181818;stroke-width:0.5;" width="103" x="1270.5" y="467"/><ellipse cx="1285.5" cy="483" fill="#ADD1B2" rx="11" ry="11" style="stroke:#181818;stroke-width:1.0;"/><path d="M1288.4688,488.6406 Q1287.8906,488.9375 1287.25,489.0781 Q1286.6094,489.2344 1285.9063,489.2344 Q1283.4063,489.2344 1282.0781,487.5938 Q1280.7656,485.9375 1280.7656,482.8125 Q1280.7656,479.6875 1282.0781,478.0313 Q1283.4063,476.375 1285.9063,476.375 Q1286.6094,476.375 1287.25,476.5313 Q1287.9063,476.6875 1288.4688,476.9844 L1288.4688,479.7031 Q1287.8438,479.125 1287.25,478.8594 Q1286.6563,478.5781 1286.0313,478.5781 Q1284.6875,478.5781 1284,479.6563 Q1283.3125,480.7188 1283.3125,482.8125 Q1283.3125,484.9063 1284,485.9844 Q1284.6875,487.0469 1286.0313,487.0469 Q1286.6563,487.0469 1287.25,486.7813 Q1287.8438,486.5 1288.4688,485.9219 L1288.4688,488.6406 Z " fill="#000000"/><text fill="#000000" font-family="sans-serif" font-size="14" lengthAdjust="spacing" textLength="71" x="1299.5" y="487.8467">Parameter</text></g><!--class StructuralEntity--><g id="elem_StructuralEntity"><rect codeLine="378" fill="#F1F1F1" height="32" id="StructuralEntity" rx="2.5" ry="2.5" style="stroke:#181818;stroke-width:0.5;" width="136" x="1386" y="375"/><ellipse cx="1401" cy="391" fill="#ADD1B2" rx="11" ry="11" style="stroke:#181818;stroke-width:1.0;"/><path d="M1403.9688,396.6406 Q1403.3906,396.9375 1402.75,397.0781 Q1402.1094,397.2344 1401.4063,397.2344 Q1398.9063,397.2344 1397.5781,395.5938 Q1396.2656,393.9375 1396.2656,390.8125 Q1396.2656,387.6875 1397.5781,386.0313 Q1398.9063,384.375 1401.4063,384.375 Q1402.1094,384.375 1402.75,384.5313 Q1403.4063,384.6875 1403.9688,384.9844 L1403.9688,387.7031 Q1403.3438,387.125 1402.75,386.8594 Q1402.1563,386.5781 1401.5313,386.5781 Q1400.1875,386.5781 1399.5,387.6563 Q1398.8125,388.7188 1398.8125,390.8125 Q1398.8125,392.9063 1399.5,393.9844 Q1400.1875,395.0469 1401.5313,395.0469 Q1402.1563,395.0469 1402.75,394.7813 Q1403.3438,394.5 1403.9688,393.9219 L1403.9688,396.6406 Z " fill="#000000"/><text fill="#000000" font-family="sans-serif" font-size="14" lengthAdjust="spacing" textLength="104" x="1415" y="395.8467">StructuralEntity</text></g><!--class Property--><g id="elem_Property"><rect codeLine="152" fill="#F1F1F1" height="32" id="Property" rx="2.5" ry="2.5" style="stroke:#181818;stroke-width:0.5;" width="90" x="1409" y="467"/><ellipse cx="1424" cy="483" fill="#ADD1B2" rx="11" ry="11" style="stroke:#181818;stroke-width:1.0;"/><path d="M1426.9688,488.6406 Q1426.3906,488.9375 1425.75,489.0781 Q1425.1094,489.2344 1424.4063,489.2344 Q1421.9063,489.2344 1420.5781,487.5938 Q1419.2656,485.9375 1419.2656,482.8125 Q1419.2656,479.6875 1420.5781,478.0313 Q1421.9063,476.375 1424.4063,476.375 Q1425.1094,476.375 1425.75,476.5313 Q1426.4063,476.6875 1426.9688,476.9844 L1426.9688,479.7031 Q1426.3438,479.125 1425.75,478.8594 Q1425.1563,478.5781 1424.5313,478.5781 Q1423.1875,478.5781 1422.5,479.6563 Q1421.8125,480.7188 1421.8125,482.8125 Q1421.8125,484.9063 1422.5,485.9844 Q1423.1875,487.0469 1424.5313,487.0469 Q1425.1563,487.0469 1425.75,486.7813 Q1426.3438,486.5 1426.9688,485.9219 L1426.9688,488.6406 Z " fill="#000000"/><text fill="#000000" font-family="sans-serif" font-size="14" lengthAdjust="spacing" textLength="58" x="1438" y="487.8467">Property</text></g><!--class Inheritance--><g id="elem_Inheritance"><rect codeLine="165" fill="#F1F1F1" height="32" id="Inheritance" rx="2.5" ry="2.5" style="stroke:#181818;stroke-width:0.5;" width="109" x="298.5" y="375"/><ellipse cx="313.5" cy="391" fill="#ADD1B2" rx="11" ry="11" style="stroke:#181818;stroke-width:1.0;"/><path d="M316.4688,396.6406 Q315.8906,396.9375 315.25,397.0781 Q314.6094,397.2344 313.9063,397.2344 Q311.4063,397.2344 310.0781,395.5938 Q308.7656,393.9375 308.7656,390.8125 Q308.7656,387.6875 310.0781,386.0313 Q311.4063,384.375 313.9063,384.375 Q314.6094,384.375 315.25,384.5313 Q315.9063,384.6875 316.4688,384.9844 L316.4688,387.7031 Q315.8438,387.125 315.25,386.8594 Q314.6563,386.5781 314.0313,386.5781 Q312.6875,386.5781 312,387.6563 Q311.3125,388.7188 311.3125,390.8125 Q311.3125,392.9063 312,393.9844 Q312.6875,395.0469 314.0313,395.0469 Q314.6563,395.0469 315.25,394.7813 Q315.8438,394.5 316.4688,393.9219 L316.4688,396.6406 Z " fill="#000000"/><text fill="#000000" font-family="sans-serif" font-size="14" lengthAdjust="spacing" textLength="77" x="327.5" y="395.8467">Inheritance</text></g><!--class Interface--><g id="elem_Interface"><rect codeLine="175" fill="#F1F1F1" height="32" id="Interface" rx="2.5" ry="2.5" style="stroke:#181818;stroke-width:0.5;" width="92" x="322" y="559"/><ellipse cx="337" cy="575" fill="#ADD1B2" rx="11" ry="11" style="stroke:#181818;stroke-width:1.0;"/><path d="M339.9688,580.6406 Q339.3906,580.9375 338.75,581.0781 Q338.1094,581.2344 337.4063,581.2344 Q334.9063,581.2344 333.5781,579.5938 Q332.2656,577.9375 332.2656,574.8125 Q332.2656,571.6875 333.5781,570.0313 Q334.9063,568.375 337.4063,568.375 Q338.1094,568.375 338.75,568.5313 Q339.4063,568.6875 339.9688,568.9844 L339.9688,571.7031 Q339.3438,571.125 338.75,570.8594 Q338.1563,570.5781 337.5313,570.5781 Q336.1875,570.5781 335.5,571.6563 Q334.8125,572.7188 334.8125,574.8125 Q334.8125,576.9063 335.5,577.9844 Q336.1875,579.0469 337.5313,579.0469 Q338.1563,579.0469 338.75,578.7813 Q339.3438,578.5 339.9688,577.9219 L339.9688,580.6406 Z " fill="#000000"/><text fill="#000000" font-family="sans-serif" font-size="14" lengthAdjust="spacing" textLength="60" x="351" y="579.8467">Interface</text></g><!--class Type--><g id="elem_Type"><rect codeLine="359" fill="#F1F1F1" height="32" id="Type" rx="2.5" ry="2.5" style="stroke:#181818;stroke-width:0.5;" width="66" x="729" y="467"/><ellipse cx="744" cy="483" fill="#ADD1B2" rx="11" ry="11" style="stroke:#181818;stroke-width:1.0;"/><path d="M746.9688,488.6406 Q746.3906,488.9375 745.75,489.0781 Q745.1094,489.2344 744.4063,489.2344 Q741.9063,489.2344 740.5781,487.5938 Q739.2656,485.9375 739.2656,482.8125 Q739.2656,479.6875 740.5781,478.0313 Q741.9063,476.375 744.4063,476.375 Q745.1094,476.375 745.75,476.5313 Q746.4063,476.6875 746.9688,476.9844 L746.9688,479.7031 Q746.3438,479.125 745.75,478.8594 Q745.1563,478.5781 744.5313,478.5781 Q743.1875,478.5781 742.5,479.6563 Q741.8125,480.7188 741.8125,482.8125 Q741.8125,484.9063 742.5,485.9844 Q743.1875,487.0469 744.5313,487.0469 Q745.1563,487.0469 745.75,486.7813 Q746.3438,486.5 746.9688,485.9219 L746.9688,488.6406 Z " fill="#000000"/><text fill="#000000" font-family="sans-serif" font-size="14" lengthAdjust="spacing" textLength="34" x="758" y="487.8467">Type</text></g><!--class Method--><g id="elem_Method"><rect codeLine="191" fill="#F1F1F1" height="32" id="Method" rx="2.5" ry="2.5" style="stroke:#181818;stroke-width:0.5;" width="85" x="1192.5" y="559"/><ellipse cx="1207.5" cy="575" fill="#ADD1B2" rx="11" ry="11" style="stroke:#181818;stroke-width:1.0;"/><path d="M1210.4688,580.6406 Q1209.8906,580.9375 1209.25,581.0781 Q1208.6094,581.2344 1207.9063,581.2344 Q1205.4063,581.2344 1204.0781,579.5938 Q1202.7656,577.9375 1202.7656,574.8125 Q1202.7656,571.6875 1204.0781,570.0313 Q1205.4063,568.375 1207.9063,568.375 Q1208.6094,568.375 1209.25,568.5313 Q1209.9063,568.6875 1210.4688,568.9844 L1210.4688,571.7031 Q1209.8438,571.125 1209.25,570.8594 Q1208.6563,570.5781 1208.0313,570.5781 Q1206.6875,570.5781 1206,571.6563 Q1205.3125,572.7188 1205.3125,574.8125 Q1205.3125,576.9063 1206,577.9844 Q1206.6875,579.0469 1208.0313,579.0469 Q1208.6563,579.0469 1209.25,578.7813 Q1209.8438,578.5 1210.4688,577.9219 L1210.4688,580.6406 Z " fill="#000000"/><text fill="#000000" font-family="sans-serif" font-size="14" lengthAdjust="spacing" textLength="53" x="1221.5" y="579.8467">Method</text></g><!--class BehavioralEntity--><g id="elem_BehavioralEntity"><rect codeLine="264" fill="#F1F1F1" height="32" id="BehavioralEntity" rx="2.5" ry="2.5" style="stroke:#181818;stroke-width:0.5;" width="141" x="1094.5" y="467"/><ellipse cx="1109.5" cy="483" fill="#ADD1B2" rx="11" ry="11" style="stroke:#181818;stroke-width:1.0;"/><path d="M1112.4688,488.6406 Q1111.8906,488.9375 1111.25,489.0781 Q1110.6094,489.2344 1109.9063,489.2344 Q1107.4063,489.2344 1106.0781,487.5938 Q1104.7656,485.9375 1104.7656,482.8125 Q1104.7656,479.6875 1106.0781,478.0313 Q1107.4063,476.375 1109.9063,476.375 Q1110.6094,476.375 1111.25,476.5313 Q1111.9063,476.6875 1112.4688,476.9844 L1112.4688,479.7031 Q1111.8438,479.125 1111.25,478.8594 Q1110.6563,478.5781 1110.0313,478.5781 Q1108.6875,478.5781 1108,479.6563 Q1107.3125,480.7188 1107.3125,482.8125 Q1107.3125,484.9063 1108,485.9844 Q1108.6875,487.0469 1110.0313,487.0469 Q1110.6563,487.0469 1111.25,486.7813 Q1111.8438,486.5 1112.4688,485.9219 L1112.4688,488.6406 Z " fill="#000000"/><text fill="#000000" font-family="sans-serif" font-size="14" lengthAdjust="spacing" textLength="109" x="1123.5" y="487.8467">BehavioralEntity</text></g><!--class Class--><g id="elem_Class"><rect codeLine="216" fill="#F1F1F1" height="32" id="Class" rx="2.5" ry="2.5" style="stroke:#181818;stroke-width:0.5;" width="69" x="449.5" y="559"/><ellipse cx="464.5" cy="575" fill="#ADD1B2" rx="11" ry="11" style="stroke:#181818;stroke-width:1.0;"/><path d="M467.4688,580.6406 Q466.8906,580.9375 466.25,581.0781 Q465.6094,581.2344 464.9063,581.2344 Q462.4063,581.2344 461.0781,579.5938 Q459.7656,577.9375 459.7656,574.8125 Q459.7656,571.6875 461.0781,570.0313 Q462.4063,568.375 464.9063,568.375 Q465.6094,568.375 466.25,568.5313 Q466.9063,568.6875 467.4688,568.9844 L467.4688,571.7031 Q466.8438,571.125 466.25,570.8594 Q465.6563,570.5781 465.0313,570.5781 Q463.6875,570.5781 463,571.6563 Q462.3125,572.7188 462.3125,574.8125 Q462.3125,576.9063 463,577.9844 Q463.6875,579.0469 465.0313,579.0469 Q465.6563,579.0469 466.25,578.7813 Q466.8438,578.5 467.4688,577.9219 L467.4688,580.6406 Z " fill="#000000"/><text fill="#000000" font-family="sans-serif" font-size="14" lengthAdjust="spacing" textLength="37" x="478.5" y="579.8467">Class</text></g><!--class ParameterizableClass--><g id="elem_ParameterizableClass"><rect codeLine="235" fill="#F1F1F1" height="32" id="ParameterizableClass" rx="2.5" ry="2.5" style="stroke:#181818;stroke-width:0.5;" width="180" x="505" y="651"/><ellipse cx="520" cy="667" fill="#ADD1B2" rx="11" ry="11" style="stroke:#181818;stroke-width:1.0;"/><path d="M522.9688,672.6406 Q522.3906,672.9375 521.75,673.0781 Q521.1094,673.2344 520.4063,673.2344 Q517.9063,673.2344 516.5781,671.5938 Q515.2656,669.9375 515.2656,666.8125 Q515.2656,663.6875 516.5781,662.0313 Q517.9063,660.375 520.4063,660.375 Q521.1094,660.375 521.75,660.5313 Q522.4063,660.6875 522.9688,660.9844 L522.9688,663.7031 Q522.3438,663.125 521.75,662.8594 Q521.1563,662.5781 520.5313,662.5781 Q519.1875,662.5781 518.5,663.6563 Q517.8125,664.7188 517.8125,666.8125 Q517.8125,668.9063 518.5,669.9844 Q519.1875,671.0469 520.5313,671.0469 Q521.1563,671.0469 521.75,670.7813 Q522.3438,670.5 522.9688,669.9219 L522.9688,672.6406 Z " fill="#000000"/><text fill="#000000" font-family="sans-serif" font-size="14" lengthAdjust="spacing" textLength="148" x="534" y="671.8467">ParameterizableClass</text></g><!--class ParameterizableInterface--><g id="elem_ParameterizableInterface"><rect codeLine="242" fill="#F1F1F1" height="32" id="ParameterizableInterface" rx="2.5" ry="2.5" style="stroke:#181818;stroke-width:0.5;" width="203" x="266.5" y="651"/><ellipse cx="281.5" cy="667" fill="#ADD1B2" rx="11" ry="11" style="stroke:#181818;stroke-width:1.0;"/><path d="M284.4688,672.6406 Q283.8906,672.9375 283.25,673.0781 Q282.6094,673.2344 281.9063,673.2344 Q279.4063,673.2344 278.0781,671.5938 Q276.7656,669.9375 276.7656,666.8125 Q276.7656,663.6875 278.0781,662.0313 Q279.4063,660.375 281.9063,660.375 Q282.6094,660.375 283.25,660.5313 Q283.9063,660.6875 284.4688,660.9844 L284.4688,663.7031 Q283.8438,663.125 283.25,662.8594 Q282.6563,662.5781 282.0313,662.5781 Q280.6875,662.5781 280,663.6563 Q279.3125,664.7188 279.3125,666.8125 Q279.3125,668.9063 280,669.9844 Q280.6875,671.0469 282.0313,671.0469 Q282.6563,671.0469 283.25,670.7813 Q283.8438,670.5 284.4688,669.9219 L284.4688,672.6406 Z " fill="#000000"/><text fill="#000000" font-family="sans-serif" font-size="14" lengthAdjust="spacing" textLength="171" x="295.5" y="671.8467">ParameterizableInterface</text></g><!--class Function--><g id="elem_Function"><rect codeLine="249" fill="#F1F1F1" height="32" id="Function" rx="2.5" ry="2.5" style="stroke:#181818;stroke-width:0.5;" width="92" x="1313" y="559"/><ellipse cx="1328" cy="575" fill="#ADD1B2" rx="11" ry="11" style="stroke:#181818;stroke-width:1.0;"/><path d="M1330.9688,580.6406 Q1330.3906,580.9375 1329.75,581.0781 Q1329.1094,581.2344 1328.4063,581.2344 Q1325.9063,581.2344 1324.5781,579.5938 Q1323.2656,577.9375 1323.2656,574.8125 Q1323.2656,571.6875 1324.5781,570.0313 Q1325.9063,568.375 1328.4063,568.375 Q1329.1094,568.375 1329.75,568.5313 Q1330.4063,568.6875 1330.9688,568.9844 L1330.9688,571.7031 Q1330.3438,571.125 1329.75,570.8594 Q1329.1563,570.5781 1328.5313,570.5781 Q1327.1875,570.5781 1326.5,571.6563 Q1325.8125,572.7188 1325.8125,574.8125 Q1325.8125,576.9063 1326.5,577.9844 Q1327.1875,579.0469 1328.5313,579.0469 Q1329.1563,579.0469 1329.75,578.7813 Q1330.3438,578.5 1330.9688,577.9219 L1330.9688,580.6406 Z " fill="#000000"/><text fill="#000000" font-family="sans-serif" font-size="14" lengthAdjust="spacing" textLength="60" x="1342" y="579.8467">Function</text></g><!--class Accessor--><g id="elem_Accessor"><rect codeLine="253" fill="#F1F1F1" height="32" id="Accessor" rx="2.5" ry="2.5" style="stroke:#181818;stroke-width:0.5;" width="96" x="1187" y="651"/><ellipse cx="1202" cy="667" fill="#ADD1B2" rx="11" ry="11" style="stroke:#181818;stroke-width:1.0;"/><path d="M1204.9688,672.6406 Q1204.3906,672.9375 1203.75,673.0781 Q1203.1094,673.2344 1202.4063,673.2344 Q1199.9063,673.2344 1198.5781,671.5938 Q1197.2656,669.9375 1197.2656,666.8125 Q1197.2656,663.6875 1198.5781,662.0313 Q1199.9063,660.375 1202.4063,660.375 Q1203.1094,660.375 1203.75,660.5313 Q1204.4063,660.6875 1204.9688,660.9844 L1204.9688,663.7031 Q1204.3438,663.125 1203.75,662.8594 Q1203.1563,662.5781 1202.5313,662.5781 Q1201.1875,662.5781 1200.5,663.6563 Q1199.8125,664.7188 1199.8125,666.8125 Q1199.8125,668.9063 1200.5,669.9844 Q1201.1875,671.0469 1202.5313,671.0469 Q1203.1563,671.0469 1203.75,670.7813 Q1204.3438,670.5 1204.9688,669.9219 L1204.9688,672.6406 Z " fill="#000000"/><text fill="#000000" font-family="sans-serif" font-size="14" lengthAdjust="spacing" textLength="64" x="1216" y="671.8467">Accessor</text></g><!--class TypeParameter--><g id="elem_TypeParameter"><rect codeLine="257" fill="#F1F1F1" height="32" id="TypeParameter" rx="2.5" ry="2.5" style="stroke:#181818;stroke-width:0.5;" width="137" x="553.5" y="559"/><ellipse cx="568.5" cy="575" fill="#ADD1B2" rx="11" ry="11" style="stroke:#181818;stroke-width:1.0;"/><path d="M571.4688,580.6406 Q570.8906,580.9375 570.25,581.0781 Q569.6094,581.2344 568.9063,581.2344 Q566.4063,581.2344 565.0781,579.5938 Q563.7656,577.9375 563.7656,574.8125 Q563.7656,571.6875 565.0781,570.0313 Q566.4063,568.375 568.9063,568.375 Q569.6094,568.375 570.25,568.5313 Q570.9063,568.6875 571.4688,568.9844 L571.4688,571.7031 Q570.8438,571.125 570.25,570.8594 Q569.6563,570.5781 569.0313,570.5781 Q567.6875,570.5781 567,571.6563 Q566.3125,572.7188 566.3125,574.8125 Q566.3125,576.9063 567,577.9844 Q567.6875,579.0469 569.0313,579.0469 Q569.6563,579.0469 570.25,578.7813 Q570.8438,578.5 571.4688,577.9219 L571.4688,580.6406 Z " fill="#000000"/><text fill="#000000" font-family="sans-serif" font-size="14" lengthAdjust="spacing" textLength="105" x="582.5" y="579.8467">TypeParameter</text></g><!--class Invocation--><g id="elem_Invocation"><rect codeLine="289" fill="#F1F1F1" height="32" id="Invocation" rx="2.5" ry="2.5" style="stroke:#181818;stroke-width:0.5;" width="102" x="443" y="375"/><ellipse cx="458" cy="391" fill="#ADD1B2" rx="11" ry="11" style="stroke:#181818;stroke-width:1.0;"/><path d="M460.9688,396.6406 Q460.3906,396.9375 459.75,397.0781 Q459.1094,397.2344 458.4063,397.2344 Q455.9063,397.2344 454.5781,395.5938 Q453.2656,393.9375 453.2656,390.8125 Q453.2656,387.6875 454.5781,386.0313 Q455.9063,384.375 458.4063,384.375 Q459.1094,384.375 459.75,384.5313 Q460.4063,384.6875 460.9688,384.9844 L460.9688,387.7031 Q460.3438,387.125 459.75,386.8594 Q459.1563,386.5781 458.5313,386.5781 Q457.1875,386.5781 456.5,387.6563 Q455.8125,388.7188 455.8125,390.8125 Q455.8125,392.9063 456.5,393.9844 Q457.1875,395.0469 458.5313,395.0469 Q459.1563,395.0469 459.75,394.7813 Q460.3438,394.5 460.9688,393.9219 L460.9688,396.6406 Z " fill="#000000"/><text fill="#000000" font-family="sans-serif" font-size="14" lengthAdjust="spacing" textLength="70" x="472" y="395.8467">Invocation</text></g><!--class Reference--><g id="elem_Reference"><rect codeLine="305" fill="#F1F1F1" height="32" id="Reference" rx="2.5" ry="2.5" style="stroke:#181818;stroke-width:0.5;" width="104" x="580" y="375"/><ellipse cx="595" cy="391" fill="#ADD1B2" rx="11" ry="11" style="stroke:#181818;stroke-width:1.0;"/><path d="M597.9688,396.6406 Q597.3906,396.9375 596.75,397.0781 Q596.1094,397.2344 595.4063,397.2344 Q592.9063,397.2344 591.5781,395.5938 Q590.2656,393.9375 590.2656,390.8125 Q590.2656,387.6875 591.5781,386.0313 Q592.9063,384.375 595.4063,384.375 Q596.1094,384.375 596.75,384.5313 Q597.4063,384.6875 597.9688,384.9844 L597.9688,387.7031 Q597.3438,387.125 596.75,386.8594 Q596.1563,386.5781 595.5313,386.5781 Q594.1875,386.5781 593.5,387.6563 Q592.8125,388.7188 592.8125,390.8125 Q592.8125,392.9063 593.5,393.9844 Q594.1875,395.0469 595.5313,395.0469 Q596.1563,395.0469 596.75,394.7813 Q597.3438,394.5 597.9688,393.9219 L597.9688,396.6406 Z " fill="#000000"/><text fill="#000000" font-family="sans-serif" font-size="14" lengthAdjust="spacing" textLength="72" x="609" y="395.8467">Reference</text></g><!--class Variable--><g id="elem_Variable"><rect codeLine="315" fill="#F1F1F1" height="32" id="Variable" rx="2.5" ry="2.5" style="stroke:#181818;stroke-width:0.5;" width="86" x="1534" y="467"/><ellipse cx="1549" cy="483" fill="#ADD1B2" rx="11" ry="11" style="stroke:#181818;stroke-width:1.0;"/><path d="M1551.9688,488.6406 Q1551.3906,488.9375 1550.75,489.0781 Q1550.1094,489.2344 1549.4063,489.2344 Q1546.9063,489.2344 1545.5781,487.5938 Q1544.2656,485.9375 1544.2656,482.8125 Q1544.2656,479.6875 1545.5781,478.0313 Q1546.9063,476.375 1549.4063,476.375 Q1550.1094,476.375 1550.75,476.5313 Q1551.4063,476.6875 1551.9688,476.9844 L1551.9688,479.7031 Q1551.3438,479.125 1550.75,478.8594 Q1550.1563,478.5781 1549.5313,478.5781 Q1548.1875,478.5781 1547.5,479.6563 Q1546.8125,480.7188 1546.8125,482.8125 Q1546.8125,484.9063 1547.5,485.9844 Q1548.1875,487.0469 1549.5313,487.0469 Q1550.1563,487.0469 1550.75,486.7813 Q1551.3438,486.5 1551.9688,485.9219 L1551.9688,488.6406 Z " fill="#000000"/><text fill="#000000" font-family="sans-serif" font-size="14" lengthAdjust="spacing" textLength="54" x="1563" y="487.8467">Variable</text></g><!--class Access--><g id="elem_Access"><rect codeLine="388" fill="#F1F1F1" height="32" id="Access" rx="2.5" ry="2.5" style="stroke:#181818;stroke-width:0.5;" width="82" x="719" y="375"/><ellipse cx="734" cy="391" fill="#ADD1B2" rx="11" ry="11" style="stroke:#181818;stroke-width:1.0;"/><path d="M736.9688,396.6406 Q736.3906,396.9375 735.75,397.0781 Q735.1094,397.2344 734.4063,397.2344 Q731.9063,397.2344 730.5781,395.5938 Q729.2656,393.9375 729.2656,390.8125 Q729.2656,387.6875 730.5781,386.0313 Q731.9063,384.375 734.4063,384.375 Q735.1094,384.375 735.75,384.5313 Q736.4063,384.6875 736.9688,384.9844 L736.9688,387.7031 Q736.3438,387.125 735.75,386.8594 Q735.1563,386.5781 734.5313,386.5781 Q733.1875,386.5781 732.5,387.6563 Q731.8125,388.7188 731.8125,390.8125 Q731.8125,392.9063 732.5,393.9844 Q733.1875,395.0469 734.5313,395.0469 Q735.1563,395.0469 735.75,394.7813 Q736.3438,394.5 736.9688,393.9219 L736.9688,396.6406 Z " fill="#000000"/><text fill="#000000" font-family="sans-serif" font-size="14" lengthAdjust="spacing" textLength="50" x="748" y="395.8467">Access</text></g><!--class CSourceLanguage--><g id="elem_CSourceLanguage"><rect codeLine="401" fill="#F1F1F1" height="32" id="CSourceLanguage" rx="2.5" ry="2.5" style="stroke:#181818;stroke-width:0.5;" width="159" x="8.5" y="283"/><ellipse cx="23.5" cy="299" fill="#ADD1B2" rx="11" ry="11" style="stroke:#181818;stroke-width:1.0;"/><path d="M26.4688,304.6406 Q25.8906,304.9375 25.25,305.0781 Q24.6094,305.2344 23.9063,305.2344 Q21.4063,305.2344 20.0781,303.5938 Q18.7656,301.9375 18.7656,298.8125 Q18.7656,295.6875 20.0781,294.0313 Q21.4063,292.375 23.9063,292.375 Q24.6094,292.375 25.25,292.5313 Q25.9063,292.6875 26.4688,292.9844 L26.4688,295.7031 Q25.8438,295.125 25.25,294.8594 Q24.6563,294.5781 24.0313,294.5781 Q22.6875,294.5781 22,295.6563 Q21.3125,296.7188 21.3125,298.8125 Q21.3125,300.9063 22,301.9844 Q22.6875,303.0469 24.0313,303.0469 Q24.6563,303.0469 25.25,302.7813 Q25.8438,302.5 26.4688,301.9219 L26.4688,304.6406 Z " fill="#000000"/><text fill="#000000" font-family="sans-serif" font-size="14" lengthAdjust="spacing" textLength="127" x="37.5" y="303.8467">CSourceLanguage</text></g><!--class CustomSourceLanguage--><g id="elem_CustomSourceLanguage"><rect codeLine="405" fill="#F1F1F1" height="32" id="CustomSourceLanguage" rx="2.5" ry="2.5" style="stroke:#181818;stroke-width:0.5;" width="203" x="202.5" y="283"/><ellipse cx="217.5" cy="299" fill="#ADD1B2" rx="11" ry="11" style="stroke:#181818;stroke-width:1.0;"/><path d="M220.4688,304.6406 Q219.8906,304.9375 219.25,305.0781 Q218.6094,305.2344 217.9063,305.2344 Q215.4063,305.2344 214.0781,303.5938 Q212.7656,301.9375 212.7656,298.8125 Q212.7656,295.6875 214.0781,294.0313 Q215.4063,292.375 217.9063,292.375 Q218.6094,292.375 219.25,292.5313 Q219.9063,292.6875 220.4688,292.9844 L220.4688,295.7031 Q219.8438,295.125 219.25,294.8594 Q218.6563,294.5781 218.0313,294.5781 Q216.6875,294.5781 216,295.6563 Q215.3125,296.7188 215.3125,298.8125 Q215.3125,300.9063 216,301.9844 Q216.6875,303.0469 218.0313,303.0469 Q218.6563,303.0469 219.25,302.7813 Q219.8438,302.5 220.4688,301.9219 L220.4688,304.6406 Z " fill="#000000"/><text fill="#000000" font-family="sans-serif" font-size="14" lengthAdjust="spacing" textLength="171" x="231.5" y="303.8467">CustomSourceLanguage</text></g><!--class Enum--><g id="elem_Enum"><rect codeLine="412" fill="#F1F1F1" height="32" id="Enum" rx="2.5" ry="2.5" style="stroke:#181818;stroke-width:0.5;" width="72" x="726" y="559"/><ellipse cx="741" cy="575" fill="#ADD1B2" rx="11" ry="11" style="stroke:#181818;stroke-width:1.0;"/><path d="M743.9688,580.6406 Q743.3906,580.9375 742.75,581.0781 Q742.1094,581.2344 741.4063,581.2344 Q738.9063,581.2344 737.5781,579.5938 Q736.2656,577.9375 736.2656,574.8125 Q736.2656,571.6875 737.5781,570.0313 Q738.9063,568.375 741.4063,568.375 Q742.1094,568.375 742.75,568.5313 Q743.4063,568.6875 743.9688,568.9844 L743.9688,571.7031 Q743.3438,571.125 742.75,570.8594 Q742.1563,570.5781 741.5313,570.5781 Q740.1875,570.5781 739.5,571.6563 Q738.8125,572.7188 738.8125,574.8125 Q738.8125,576.9063 739.5,577.9844 Q740.1875,579.0469 741.5313,579.0469 Q742.1563,579.0469 742.75,578.7813 Q743.3438,578.5 743.9688,577.9219 L743.9688,580.6406 Z " fill="#000000"/><text fill="#000000" font-family="sans-serif" font-size="14" lengthAdjust="spacing" textLength="40" x="755" y="579.8467">Enum</text></g><!--class EnumValue--><g id="elem_EnumValue"><rect codeLine="419" fill="#F1F1F1" height="32" id="EnumValue" rx="2.5" ry="2.5" style="stroke:#181818;stroke-width:0.5;" width="110" x="1655" y="467"/><ellipse cx="1670" cy="483" fill="#ADD1B2" rx="11" ry="11" style="stroke:#181818;stroke-width:1.0;"/><path d="M1672.9688,488.6406 Q1672.3906,488.9375 1671.75,489.0781 Q1671.1094,489.2344 1670.4063,489.2344 Q1667.9063,489.2344 1666.5781,487.5938 Q1665.2656,485.9375 1665.2656,482.8125 Q1665.2656,479.6875 1666.5781,478.0313 Q1667.9063,476.375 1670.4063,476.375 Q1671.1094,476.375 1671.75,476.5313 Q1672.4063,476.6875 1672.9688,476.9844 L1672.9688,479.7031 Q1672.3438,479.125 1671.75,478.8594 Q1671.1563,478.5781 1670.5313,478.5781 Q1669.1875,478.5781 1668.5,479.6563 Q1667.8125,480.7188 1667.8125,482.8125 Q1667.8125,484.9063 1668.5,485.9844 Q1669.1875,487.0469 1670.5313,487.0469 Q1671.1563,487.0469 1671.75,486.7813 Q1672.3438,486.5 1672.9688,485.9219 L1672.9688,488.6406 Z " fill="#000000"/><text fill="#000000" font-family="sans-serif" font-size="14" lengthAdjust="spacing" textLength="78" x="1684" y="487.8467">EnumValue</text></g><!--class ImplicitVariable--><g id="elem_ImplicitVariable"><rect codeLine="426" fill="#F1F1F1" height="32" id="ImplicitVariable" rx="2.5" ry="2.5" style="stroke:#181818;stroke-width:0.5;" width="133" x="1510.5" y="559"/><ellipse cx="1525.5" cy="575" fill="#ADD1B2" rx="11" ry="11" style="stroke:#181818;stroke-width:1.0;"/><path d="M1528.4688,580.6406 Q1527.8906,580.9375 1527.25,581.0781 Q1526.6094,581.2344 1525.9063,581.2344 Q1523.4063,581.2344 1522.0781,579.5938 Q1520.7656,577.9375 1520.7656,574.8125 Q1520.7656,571.6875 1522.0781,570.0313 Q1523.4063,568.375 1525.9063,568.375 Q1526.6094,568.375 1527.25,568.5313 Q1527.9063,568.6875 1528.4688,568.9844 L1528.4688,571.7031 Q1527.8438,571.125 1527.25,570.8594 Q1526.6563,570.5781 1526.0313,570.5781 Q1524.6875,570.5781 1524,571.6563 Q1523.3125,572.7188 1523.3125,574.8125 Q1523.3125,576.9063 1524,577.9844 Q1524.6875,579.0469 1526.0313,579.0469 Q1526.6563,579.0469 1527.25,578.7813 Q1527.8438,578.5 1528.4688,577.9219 L1528.4688,580.6406 Z " fill="#000000"/><text fill="#000000" font-family="sans-serif" font-size="14" lengthAdjust="spacing" textLength="101" x="1539.5" y="579.8467">ImplicitVariable</text></g><!--class IndexedFileAnchor--><g id="elem_IndexedFileAnchor"><rect codeLine="430" fill="#F1F1F1" height="32" id="IndexedFileAnchor" rx="2.5" ry="2.5" style="stroke:#181818;stroke-width:0.5;" width="159" x="1066.5" y="283"/><ellipse cx="1081.5" cy="299" fill="#ADD1B2" rx="11" ry="11" style="stroke:#181818;stroke-width:1.0;"/><path d="M1084.4688,304.6406 Q1083.8906,304.9375 1083.25,305.0781 Q1082.6094,305.2344 1081.9063,305.2344 Q1079.4063,305.2344 1078.0781,303.5938 Q1076.7656,301.9375 1076.7656,298.8125 Q1076.7656,295.6875 1078.0781,294.0313 Q1079.4063,292.375 1081.9063,292.375 Q1082.6094,292.375 1083.25,292.5313 Q1083.9063,292.6875 1084.4688,292.9844 L1084.4688,295.7031 Q1083.8438,295.125 1083.25,294.8594 Q1082.6563,294.5781 1082.0313,294.5781 Q1080.6875,294.5781 1080,295.6563 Q1079.3125,296.7188 1079.3125,298.8125 Q1079.3125,300.9063 1080,301.9844 Q1080.6875,303.0469 1082.0313,303.0469 Q1082.6563,303.0469 1083.25,302.7813 Q1083.8438,302.5 1084.4688,301.9219 L1084.4688,304.6406 Z " fill="#000000"/><text fill="#000000" font-family="sans-serif" font-size="14" lengthAdjust="spacing" textLength="127" x="1095.5" y="303.8467">IndexedFileAnchor</text></g><!--class ParameterizedType--><g id="elem_ParameterizedType"><rect codeLine="443" fill="#F1F1F1" height="32" id="ParameterizedType" rx="2.5" ry="2.5" style="stroke:#181818;stroke-width:0.5;" width="166" x="833" y="559"/><ellipse cx="848" cy="575" fill="#ADD1B2" rx="11" ry="11" style="stroke:#181818;stroke-width:1.0;"/><path d="M850.9688,580.6406 Q850.3906,580.9375 849.75,581.0781 Q849.1094,581.2344 848.4063,581.2344 Q845.9063,581.2344 844.5781,579.5938 Q843.2656,577.9375 843.2656,574.8125 Q843.2656,571.6875 844.5781,570.0313 Q845.9063,568.375 848.4063,568.375 Q849.1094,568.375 849.75,568.5313 Q850.4063,568.6875 850.9688,568.9844 L850.9688,571.7031 Q850.3438,571.125 849.75,570.8594 Q849.1563,570.5781 848.5313,570.5781 Q847.1875,570.5781 846.5,571.6563 Q845.8125,572.7188 845.8125,574.8125 Q845.8125,576.9063 846.5,577.9844 Q847.1875,579.0469 848.5313,579.0469 Q849.1563,579.0469 849.75,578.7813 Q850.3438,578.5 850.9688,577.9219 L850.9688,580.6406 Z " fill="#000000"/><text fill="#000000" font-family="sans-serif" font-size="14" lengthAdjust="spacing" textLength="134" x="862" y="579.8467">ParameterizedType</text></g><!--class PrimitiveType--><g id="elem_PrimitiveType"><rect codeLine="453" fill="#F1F1F1" height="32" id="PrimitiveType" rx="2.5" ry="2.5" style="stroke:#181818;stroke-width:0.5;" width="123" x="1034.5" y="559"/><ellipse cx="1049.5" cy="575" fill="#ADD1B2" rx="11" ry="11" style="stroke:#181818;stroke-width:1.0;"/><path d="M1052.4688,580.6406 Q1051.8906,580.9375 1051.25,581.0781 Q1050.6094,581.2344 1049.9063,581.2344 Q1047.4063,581.2344 1046.0781,579.5938 Q1044.7656,577.9375 1044.7656,574.8125 Q1044.7656,571.6875 1046.0781,570.0313 Q1047.4063,568.375 1049.9063,568.375 Q1050.6094,568.375 1051.25,568.5313 Q1051.9063,568.6875 1052.4688,568.9844 L1052.4688,571.7031 Q1051.8438,571.125 1051.25,570.8594 Q1050.6563,570.5781 1050.0313,570.5781 Q1048.6875,570.5781 1048,571.6563 Q1047.3125,572.7188 1047.3125,574.8125 Q1047.3125,576.9063 1048,577.9844 Q1048.6875,579.0469 1050.0313,579.0469 Q1050.6563,579.0469 1051.25,578.7813 Q1051.8438,578.5 1052.4688,577.9219 L1052.4688,580.6406 Z " fill="#000000"/><text fill="#000000" font-family="sans-serif" font-size="14" lengthAdjust="spacing" textLength="91" x="1063.5" y="579.8467">PrimitiveType</text></g><!--class TextAnchor--><g id="elem_TextAnchor"><rect codeLine="457" fill="#F1F1F1" height="32" id="TextAnchor" rx="2.5" ry="2.5" style="stroke:#181818;stroke-width:0.5;" width="111" x="1260.5" y="283"/><ellipse cx="1275.5" cy="299" fill="#ADD1B2" rx="11" ry="11" style="stroke:#181818;stroke-width:1.0;"/><path d="M1278.4688,304.6406 Q1277.8906,304.9375 1277.25,305.0781 Q1276.6094,305.2344 1275.9063,305.2344 Q1273.4063,305.2344 1272.0781,303.5938 Q1270.7656,301.9375 1270.7656,298.8125 Q1270.7656,295.6875 1272.0781,294.0313 Q1273.4063,292.375 1275.9063,292.375 Q1276.6094,292.375 1277.25,292.5313 Q1277.9063,292.6875 1278.4688,292.9844 L1278.4688,295.7031 Q1277.8438,295.125 1277.25,294.8594 Q1276.6563,294.5781 1276.0313,294.5781 Q1274.6875,294.5781 1274,295.6563 Q1273.3125,296.7188 1273.3125,298.8125 Q1273.3125,300.9063 1274,301.9844 Q1274.6875,303.0469 1276.0313,303.0469 Q1276.6563,303.0469 1277.25,302.7813 Q1277.8438,302.5 1278.4688,301.9219 L1278.4688,304.6406 Z " fill="#000000"/><text fill="#000000" font-family="sans-serif" font-size="14" lengthAdjust="spacing" textLength="79" x="1289.5" y="303.8467">TextAnchor</text></g><!--class FamixRepository--><g id="elem_FamixRepository"><rect codeLine="470" fill="#F1F1F1" height="32" id="FamixRepository" rx="2.5" ry="2.5" style="stroke:#181818;stroke-width:0.5;" width="145" x="748.5" y="7"/><ellipse cx="763.5" cy="23" fill="#ADD1B2" rx="11" ry="11" style="stroke:#181818;stroke-width:1.0;"/><path d="M766.4688,28.6406 Q765.8906,28.9375 765.25,29.0781 Q764.6094,29.2344 763.9063,29.2344 Q761.4063,29.2344 760.0781,27.5938 Q758.7656,25.9375 758.7656,22.8125 Q758.7656,19.6875 760.0781,18.0313 Q761.4063,16.375 763.9063,16.375 Q764.6094,16.375 765.25,16.5313 Q765.9063,16.6875 766.4688,16.9844 L766.4688,19.7031 Q765.8438,19.125 765.25,18.8594 Q764.6563,18.5781 764.0313,18.5781 Q762.6875,18.5781 762,19.6563 Q761.3125,20.7188 761.3125,22.8125 Q761.3125,24.9063 762,25.9844 Q762.6875,27.0469 764.0313,27.0469 Q764.6563,27.0469 765.25,26.7813 Q765.8438,26.5 766.4688,25.9219 L766.4688,28.6406 Z " fill="#000000"/><text fill="#000000" font-family="sans-serif" font-size="14" lengthAdjust="spacing" textLength="113" x="777.5" y="27.8467">FamixRepository</text></g><!--class FamixJSONExporter--><g id="elem_FamixJSONExporter"><rect codeLine="502" fill="#F1F1F1" height="32" id="FamixJSONExporter" rx="2.5" ry="2.5" style="stroke:#181818;stroke-width:0.5;" width="162" x="929" y="7"/><ellipse cx="944" cy="23" fill="#ADD1B2" rx="11" ry="11" style="stroke:#181818;stroke-width:1.0;"/><path d="M946.9688,28.6406 Q946.3906,28.9375 945.75,29.0781 Q945.1094,29.2344 944.4063,29.2344 Q941.9063,29.2344 940.5781,27.5938 Q939.2656,25.9375 939.2656,22.8125 Q939.2656,19.6875 940.5781,18.0313 Q941.9063,16.375 944.4063,16.375 Q945.1094,16.375 945.75,16.5313 Q946.4063,16.6875 946.9688,16.9844 L946.9688,19.7031 Q946.3438,19.125 945.75,18.8594 Q945.1563,18.5781 944.5313,18.5781 Q943.1875,18.5781 942.5,19.6563 Q941.8125,20.7188 941.8125,22.8125 Q941.8125,24.9063 942.5,25.9844 Q943.1875,27.0469 944.5313,27.0469 Q945.1563,27.0469 945.75,26.7813 Q946.3438,26.5 946.9688,25.9219 L946.9688,28.6406 Z " fill="#000000"/><text fill="#000000" font-family="sans-serif" font-size="14" lengthAdjust="spacing" textLength="130" x="958" y="27.8467">FamixJSONExporter</text></g><!--reverse link FamixBaseElement to Entity--><g id="link_FamixBaseElement_Entity"><path d="M632,59.61 C632,73.31 632,88.22 632,98.96 " fill="none" id="FamixBaseElement-backto-Entity" style="stroke:#181818;stroke-width:1.0;"/><polygon fill="none" points="625,59.27,632,39.27,639,59.27,625,59.27" style="stroke:#181818;stroke-width:1.0;"/></g><!--reverse link Entity to SourceLanguage--><g id="link_Entity_SourceLanguage"><path d="M577.5,130.95 C516.94,147.57 419.7,174.25 358.96,190.92 " fill="none" id="Entity-backto-SourceLanguage" style="stroke:#181818;stroke-width:1.0;"/><polygon fill="none" points="575.76,124.17,596.9,125.63,579.46,137.67,575.76,124.17" style="stroke:#181818;stroke-width:1.0;"/></g><!--reverse link SourcedEntity to Comment--><g id="link_SourcedEntity_Comment"><path d="M591.23,234.02 C566.4,249.87 535.54,269.57 514.68,282.89 " fill="none" id="SourcedEntity-backto-Comment" style="stroke:#181818;stroke-width:1.0;"/><polygon fill="none" points="587.78,227.92,608.4,223.06,595.31,239.73,587.78,227.92" style="stroke:#181818;stroke-width:1.0;"/></g><!--reverse link Entity to SourceAnchor--><g id="link_Entity_SourceAnchor"><path d="M687.21,125.67 C782.76,142.4 978.51,176.67 1080.67,194.56 " fill="none" id="Entity-backto-SourceAnchor" style="stroke:#181818;stroke-width:1.0;"/><polygon fill="none" points="685.82,132.53,667.33,122.19,688.24,118.74,685.82,132.53" style="stroke:#181818;stroke-width:1.0;"/></g><!--reverse link Entity to SourcedEntity--><g id="link_Entity_SourcedEntity"><path d="M632,151.61 C632,165.31 632,180.22 632,190.96 " fill="none" id="Entity-backto-SourcedEntity" style="stroke:#181818;stroke-width:1.0;"/><polygon fill="none" points="625,151.27,632,131.27,639,151.27,625,151.27" style="stroke:#181818;stroke-width:1.0;"/></g><!--reverse link SourcedEntity to Association--><g id="link_SourcedEntity_Association"><path d="M632,243.61 C632,257.31 632,272.22 632,282.96 " fill="none" id="SourcedEntity-backto-Association" style="stroke:#181818;stroke-width:1.0;"/><polygon fill="none" points="625,243.27,632,223.27,639,243.27,625,243.27" style="stroke:#181818;stroke-width:1.0;"/></g><!--reverse link ScopingEntity to Namespace--><g id="link_ScopingEntity_Namespace"><path d="M169.25,509.56 C143.24,525.49 110.65,545.44 88.68,558.89 " fill="none" id="ScopingEntity-backto-Namespace" style="stroke:#181818;stroke-width:1.0;"/><polygon fill="none" points="165.68,503.54,186.4,499.06,172.99,515.48,165.68,503.54" style="stroke:#181818;stroke-width:1.0;"/></g><!--reverse link ContainerEntity to ScopingEntity--><g id="link_ContainerEntity_ScopingEntity"><path d="M816.19,407.12 C605.63,437.92 381.09,463.48 274.05,475.21 " fill="none" id="ContainerEntity-backto-ScopingEntity" style="stroke:#181818;stroke-width:1.0;"/><polygon fill="none" points="815.38,400.17,836.19,404.18,817.42,414.02,815.38,400.17" style="stroke:#181818;stroke-width:1.0;"/></g><!--reverse link ScopingEntity to ScriptEntity--><g id="link_ScopingEntity_ScriptEntity"><path d="M211,519.61 C211,533.31 211,548.22 211,558.96 " fill="none" id="ScopingEntity-backto-ScriptEntity" style="stroke:#181818;stroke-width:1.0;"/><polygon fill="none" points="204,519.27,211,499.27,218,519.27,204,519.27" style="stroke:#181818;stroke-width:1.0;"/></g><!--reverse link ScriptEntity to Module--><g id="link_ScriptEntity_Module"><path d="M202.81,611.12 C199.58,624.95 196.05,640.09 193.51,650.96 " fill="none" id="ScriptEntity-backto-Module" style="stroke:#181818;stroke-width:1.0;"/><polygon fill="none" points="196.08,609.15,207.44,591.27,209.71,612.33,196.08,609.15" style="stroke:#181818;stroke-width:1.0;"/></g><!--reverse link Association to ImportClause--><g id="link_Association_ImportClause"><path d="M556.43,315.82 C473.16,333.25 340.81,360.95 263.58,377.11 " fill="none" id="Association-backto-ImportClause" style="stroke:#181818;stroke-width:1.0;"/><polygon fill="none" points="555.22,308.92,576.23,311.67,558.08,322.62,555.22,308.92" style="stroke:#181818;stroke-width:1.0;"/></g><!--reverse link NamedEntity to Alias--><g id="link_NamedEntity_Alias"><path d="M995.95,331.69 C1007.06,346.4 1019.74,363.18 1028.64,374.96 " fill="none" id="NamedEntity-backto-Alias" style="stroke:#181818;stroke-width:1.0;"/><polygon fill="none" points="990.01,335.44,983.54,315.27,1001.18,327,990.01,335.44" style="stroke:#181818;stroke-width:1.0;"/></g><!--reverse link NamedEntity to Decorator--><g id="link_NamedEntity_Decorator"><path d="M1021.25,323.96 C1054.49,340.13 1097.35,360.98 1125.93,374.89 " fill="none" id="NamedEntity-backto-Decorator" style="stroke:#181818;stroke-width:1.0;"/><polygon fill="none" points="1017.89,330.11,1002.96,315.06,1024.01,317.52,1017.89,330.11" style="stroke:#181818;stroke-width:1.0;"/></g><!--reverse link SourcedEntity to NamedEntity--><g id="link_SourcedEntity_NamedEntity"><path d="M708.33,228.21 C771.05,244.81 858.51,267.96 915.19,282.96 " fill="none" id="SourcedEntity-backto-NamedEntity" style="stroke:#181818;stroke-width:1.0;"/><polygon fill="none" points="706.45,234.95,688.91,223.06,710.03,221.41,706.45,234.95" style="stroke:#181818;stroke-width:1.0;"/></g><!--reverse link StructuralEntity to Parameter--><g id="link_StructuralEntity_Parameter"><path d="M1415.15,418.49 C1392.03,434.26 1363.51,453.7 1344.17,466.89 " fill="none" id="StructuralEntity-backto-Parameter" style="stroke:#181818;stroke-width:1.0;"/><polygon fill="none" points="1411.44,412.55,1431.91,407.06,1419.32,424.11,1411.44,412.55" style="stroke:#181818;stroke-width:1.0;"/></g><!--reverse link StructuralEntity to Property--><g id="link_StructuralEntity_Property"><path d="M1454,427.61 C1454,441.31 1454,456.22 1454,466.96 " fill="none" id="StructuralEntity-backto-Property" style="stroke:#181818;stroke-width:1.0;"/><polygon fill="none" points="1447,427.27,1454,407.27,1461,427.27,1447,427.27" style="stroke:#181818;stroke-width:1.0;"/></g><!--reverse link Association to Inheritance--><g id="link_Association_Inheritance"><path d="M566.02,321.28 C514.91,337.77 445.37,360.2 399.85,374.89 " fill="none" id="Association-backto-Inheritance" style="stroke:#181818;stroke-width:1.0;"/><polygon fill="none" points="564.12,314.54,585.3,315.06,568.42,327.87,564.12,314.54" style="stroke:#181818;stroke-width:1.0;"/></g><!--reverse link Type to Interface--><g id="link_Type_Interface"><path d="M708.96,495.94 C643.74,510.65 529.68,536.45 432,559 C426.22,560.33 420.14,561.75 414.14,563.15 " fill="none" id="Type-backto-Interface" style="stroke:#181818;stroke-width:1.0;"/><polygon fill="none" points="707.68,489.05,728.73,491.48,710.75,502.71,707.68,489.05" style="stroke:#181818;stroke-width:1.0;"/></g><!--reverse link BehavioralEntity to Method--><g id="link_BehavioralEntity_Method"><path d="M1189.27,515.21 C1200.8,530.03 1214.04,547.06 1223.3,558.96 " fill="none" id="BehavioralEntity-backto-Method" style="stroke:#181818;stroke-width:1.0;"/><polygon fill="none" points="1183.63,519.35,1176.87,499.27,1194.68,510.76,1183.63,519.35" style="stroke:#181818;stroke-width:1.0;"/></g><!--reverse link Type to Class--><g id="link_Type_Class"><path d="M709.67,500.94 C653.71,519.06 566.58,547.26 518.6,562.8 " fill="none" id="Type-backto-Class" style="stroke:#181818;stroke-width:1.0;"/><polygon fill="none" points="707.56,494.27,728.74,494.77,711.87,507.59,707.56,494.27" style="stroke:#181818;stroke-width:1.0;"/></g><!--reverse link Class to ParameterizableClass--><g id="link_Class_ParameterizableClass"><path d="M518.4,603.89 C537.53,619.4 560.57,638.09 576.36,650.89 " fill="none" id="Class-backto-ParameterizableClass" style="stroke:#181818;stroke-width:1.0;"/><polygon fill="none" points="513.71,609.1,502.58,591.06,522.52,598.22,513.71,609.1" style="stroke:#181818;stroke-width:1.0;"/></g><!--reverse link Interface to ParameterizableInterface--><g id="link_Interface_ParameterizableInterface"><path d="M368,611.61 C368,625.31 368,640.22 368,650.96 " fill="none" id="Interface-backto-ParameterizableInterface" style="stroke:#181818;stroke-width:1.0;"/><polygon fill="none" points="361,611.27,368,591.27,375,611.27,361,611.27" style="stroke:#181818;stroke-width:1.0;"/></g><!--reverse link BehavioralEntity to Function--><g id="link_BehavioralEntity_Function"><path d="M1215.67,507.51 C1250.66,523.74 1296.17,544.85 1326.42,558.89 " fill="none" id="BehavioralEntity-backto-Function" style="stroke:#181818;stroke-width:1.0;"/><polygon fill="none" points="1212.67,513.83,1197.47,499.06,1218.56,501.13,1212.67,513.83" style="stroke:#181818;stroke-width:1.0;"/></g><!--reverse link Method to Accessor--><g id="link_Method_Accessor"><path d="M1235,611.61 C1235,625.31 1235,640.22 1235,650.96 " fill="none" id="Method-backto-Accessor" style="stroke:#181818;stroke-width:1.0;"/><polygon fill="none" points="1228,611.27,1235,591.27,1242,611.27,1228,611.27" style="stroke:#181818;stroke-width:1.0;"/></g><!--reverse link Type to TypeParameter--><g id="link_Type_TypeParameter"><path d="M721.52,510.02 C696.87,525.87 666.23,545.57 645.51,558.89 " fill="none" id="Type-backto-TypeParameter" style="stroke:#181818;stroke-width:1.0;"/><polygon fill="none" points="717.96,503.99,738.57,499.06,725.53,515.77,717.96,503.99" style="stroke:#181818;stroke-width:1.0;"/></g><!--reverse link ContainerEntity to BehavioralEntity--><g id="link_ContainerEntity_BehavioralEntity"><path d="M967.44,413.61 C1014.97,430.07 1079.2,452.3 1121.34,466.89 " fill="none" id="ContainerEntity-backto-BehavioralEntity" style="stroke:#181818;stroke-width:1.0;"/><polygon fill="none" points="965.13,420.22,948.52,407.06,969.71,406.99,965.13,420.22" style="stroke:#181818;stroke-width:1.0;"/></g><!--reverse link Association to Invocation--><g id="link_Association_Invocation"><path d="M592.1,326.02 C567.8,341.87 537.6,361.57 517.17,374.89 " fill="none" id="Association-backto-Invocation" style="stroke:#181818;stroke-width:1.0;"/><polygon fill="none" points="588.33,320.13,608.9,315.06,595.97,331.85,588.33,320.13" style="stroke:#181818;stroke-width:1.0;"/></g><!--reverse link Association to Reference--><g id="link_Association_Reference"><path d="M632,335.61 C632,349.31 632,364.22 632,374.96 " fill="none" id="Association-backto-Reference" style="stroke:#181818;stroke-width:1.0;"/><polygon fill="none" points="625,335.27,632,315.27,639,335.27,625,335.27" style="stroke:#181818;stroke-width:1.0;"/></g><!--reverse link StructuralEntity to Variable--><g id="link_StructuralEntity_Variable"><path d="M1490.84,418.95 C1512.27,434.64 1538.5,453.83 1556.35,466.89 " fill="none" id="StructuralEntity-backto-Variable" style="stroke:#181818;stroke-width:1.0;"/><polygon fill="none" points="1486.59,424.52,1474.59,407.06,1494.86,413.22,1486.59,424.52" style="stroke:#181818;stroke-width:1.0;"/></g><!--reverse link NamedEntity to ContainerEntity--><g id="link_NamedEntity_ContainerEntity"><path d="M948.41,331.69 C937.46,346.4 924.96,363.18 916.2,374.96 " fill="none" id="NamedEntity-backto-ContainerEntity" style="stroke:#181818;stroke-width:1.0;"/><polygon fill="none" points="943.08,327.13,960.63,315.27,954.31,335.49,943.08,327.13" style="stroke:#181818;stroke-width:1.0;"/></g><!--reverse link ContainerEntity to Type--><g id="link_ContainerEntity_Type"><path d="M864.02,417.79 C838.78,433.68 807.28,453.5 786.01,466.89 " fill="none" id="ContainerEntity-backto-Type" style="stroke:#181818;stroke-width:1.0;"/><polygon fill="none" points="860.41,411.79,881.07,407.06,867.87,423.64,860.41,411.79" style="stroke:#181818;stroke-width:1.0;"/></g><!--reverse link NamedEntity to StructuralEntity--><g id="link_NamedEntity_StructuralEntity"><path d="M1051.57,315.46 C1180.71,339.94 1309.31,363.59 1385.89,377.59 " fill="none" id="NamedEntity-backto-StructuralEntity" style="stroke:#181818;stroke-width:1.0;"/><polygon fill="none" points="1050.02,322.29,1031.68,311.68,1052.64,308.54,1050.02,322.29" style="stroke:#181818;stroke-width:1.0;"/></g><!--reverse link Association to Access--><g id="link_Association_Access"><path d="M670,326.72 C692.37,342.45 719.84,361.76 738.51,374.89 " fill="none" id="Association-backto-Access" style="stroke:#181818;stroke-width:1.0;"/><polygon fill="none" points="665.76,332.29,653.42,315.06,673.81,320.84,665.76,332.29" style="stroke:#181818;stroke-width:1.0;"/></g><!--reverse link SourceLanguage to CSourceLanguage--><g id="link_SourceLanguage_CSourceLanguage"><path d="M249.2,230.83 C210.04,247.15 158.42,268.66 124.27,282.89 " fill="none" id="SourceLanguage-backto-CSourceLanguage" style="stroke:#181818;stroke-width:1.0;"/><polygon fill="none" points="246.69,224.29,267.85,223.06,252.08,237.22,246.69,224.29" style="stroke:#181818;stroke-width:1.0;"/></g><!--reverse link SourceLanguage to CustomSourceLanguage--><g id="link_SourceLanguage_CustomSourceLanguage"><path d="M304,243.61 C304,257.31 304,272.22 304,282.96 " fill="none" id="SourceLanguage-backto-CustomSourceLanguage" style="stroke:#181818;stroke-width:1.0;"/><polygon fill="none" points="297,243.27,304,223.27,311,243.27,297,243.27" style="stroke:#181818;stroke-width:1.0;"/></g><!--reverse link Type to Enum--><g id="link_Type_Enum"><path d="M762,519.61 C762,533.31 762,548.22 762,558.96 " fill="none" id="Type-backto-Enum" style="stroke:#181818;stroke-width:1.0;"/><polygon fill="none" points="755,519.27,762,499.27,769,519.27,755,519.27" style="stroke:#181818;stroke-width:1.0;"/></g><!--reverse link StructuralEntity to EnumValue--><g id="link_StructuralEntity_EnumValue"><path d="M1515.79,413.72 C1562.56,430.17 1625.61,452.33 1667.01,466.89 " fill="none" id="StructuralEntity-backto-EnumValue" style="stroke:#181818;stroke-width:1.0;"/><polygon fill="none" points="1513.39,420.3,1496.85,407.06,1518.04,407.09,1513.39,420.3" style="stroke:#181818;stroke-width:1.0;"/></g><!--reverse link Variable to ImplicitVariable--><g id="link_Variable_ImplicitVariable"><path d="M1577,519.61 C1577,533.31 1577,548.22 1577,558.96 " fill="none" id="Variable-backto-ImplicitVariable" style="stroke:#181818;stroke-width:1.0;"/><polygon fill="none" points="1570,519.27,1577,499.27,1584,519.27,1570,519.27" style="stroke:#181818;stroke-width:1.0;"/></g><!--reverse link SourceAnchor to IndexedFileAnchor--><g id="link_SourceAnchor_IndexedFileAnchor"><path d="M1146,243.61 C1146,257.31 1146,272.22 1146,282.96 " fill="none" id="SourceAnchor-backto-IndexedFileAnchor" style="stroke:#181818;stroke-width:1.0;"/><polygon fill="none" points="1139,243.27,1146,223.27,1153,243.27,1139,243.27" style="stroke:#181818;stroke-width:1.0;"/></g><!--reverse link Type to ParameterizedType--><g id="link_Type_ParameterizedType"><path d="M805.34,509.33 C832.66,525.29 867.02,545.37 890.14,558.89 " fill="none" id="Type-backto-ParameterizedType" style="stroke:#181818;stroke-width:1.0;"/><polygon fill="none" points="801.51,515.2,787.78,499.06,808.58,503.11,801.51,515.2" style="stroke:#181818;stroke-width:1.0;"/></g><!--reverse link Type to PrimitiveType--><g id="link_Type_PrimitiveType"><path d="M814.85,498.24 C876.38,514.82 977.54,542.08 1040.27,558.98 " fill="none" id="Type-backto-PrimitiveType" style="stroke:#181818;stroke-width:1.0;"/><polygon fill="none" points="812.74,504.92,795.25,492.96,816.38,491.4,812.74,504.92" style="stroke:#181818;stroke-width:1.0;"/></g><!--reverse link SourceAnchor to TextAnchor--><g id="link_SourceAnchor_TextAnchor"><path d="M1192.54,232.64 C1222.9,248.71 1261.56,269.18 1287.45,282.89 " fill="none" id="SourceAnchor-backto-TextAnchor" style="stroke:#181818;stroke-width:1.0;"/><polygon fill="none" points="1188.85,238.61,1174.45,223.06,1195.41,226.24,1188.85,238.61" style="stroke:#181818;stroke-width:1.0;"/></g><!--SRC=[xLnjRzms4lwUNx7tJOVM_G52OS1UsuTjuzYNDTgF0LVYsaIqqaAKVFR5-U_7zvVXKBi1RfK2JJ-a5kVXp6Wud1c-QF_1sgePQxhWdrdBVp5Fl-p7NVEkQWZdY-jsOCFhWhuCjAtvueRisCibuVIweJlQ3eilxnRYlvyUwV3R-kv3ySzomOUUjO-wcTJrVT_jQJymoX-wwvTzrm-qBwZvezGCPLTB4noUErQ_-seKM7TZNz7tf7qSoIDrYXYzjFWpha2rQXIIoiMQ3h-kWyRNSwVdEiPAbNDeeNxKN8HoNij5HBIAdzWUoswd36yD4UbWxS7uR-khhYeNcwvhA6cTKYjDa7f59Ev9i6_uNcTLrmw4jLBJIB0JiBG0PTSKmaD8ZbiYKhnmR4WZIRH34tDF0Jrd6Y3z9XTjzTJr6NUbUlBaR6ZcLjw25e3pcVKzQn0We1-kXt63kQ5inxrGKK37o25uOE0oCZUOuxhHcp44SG3ACmNEg6QVYJ1cBfu7Fgd9DgZ4065qqr0OFgMTpf6GcWeBzxIEGry9Gg4JUeN2_Ml77NYsmt5YP_Ak2ywxYf61TUrqg6i5jGpXJhCFWY8rIsZSq9AkqIZiU_hCkf7ZpEyDDIV0qL4sCndn0zbHlYULJvlhgjiB2R49zsBKsq6Iv6Y72F-w7g8SAmNn69JdELTuYjxKlh_BFR45gYVMr49XPp0pmTspd-8UOYSv10dbNLEXEBl7qW_9R6ResNu0La2ze1rt6zhVRTyBy_2xxOEQ7BhHltoAaJg7A8wZ9hX7iyxYba-a9vLu8PvLmaCcT0X0UTOpZSLjLuzDE1U3eR49SoUxBXioSkk3gw39ks7OwZmHWGgrmzOY550kGj9CHWX5EbE4qJwoX6IfpGRUN1UO8Oa79DWvSZ53T5Myd9Am15j562agGV44DS4uKc2dT5hlQSMsJ2e9AjlRc8vKk12HuJXNhcuOuMuiWxUE4yoKlUy3HCxQ4IRBCh8qaPhv0NbutNi_kWXfKgQdSaX5-CnaMr6hTJqPWgK4Oj_QWWINdd8kfb7YL5Sf1d4i33N17PQj4ZSziQvYK6wi8MoAzup555pje1NfTcoQrt-FmcV4N5IvFncCcmI2Z0K2ohEEHgAd5MNFj5wrprsbeghD9Qx1PvAFATZb4mWNPapXHIfEP1RtDn9xZyXiH-MqWhJwZtmcEsin-sSihfhRd5Lr432wg_Xm3eA9Kpga2ctLemuYfOwMsCJfUiFRJSBpTFOw4H0anBWcFsLB7q1ccYOYIWi32eAV94C_LiFOasOgArpI9o8MIWwLJGquS3e_m3vpsKBtVpre2iQNiiEQrHJRB754VCV4ap4-yQ8sCei2Bzx4P1NARyMY96lq37BQwaadM0MfOiKulJRzULW4QR9r-0WW1iS22ijevgfdrJxHdWsahIRhM3uAAQh7bBtN3ZLjxG0toJZUC1itHoYmEKhynWhV72FwfEOtyfpnPLNcOelZhft7piJpO0F78go30OpNKVYr-QDqKpfsPJeyTRKHTQiU0aVMH2ib8aitLi-5PY7MA-h_OFY4nC3RN2vtBUUn7uLOdyeXMXvk07G1HPMXbqEVEbgbpJSej8dLsHoZp2cNx6eud8l1F8AdikyQLZ-pjaxgdTz58rBlgEQmGrohyOkDQ2RLWEKaIyDJagCYJ82GcJ8Vu_SzUnPB24oC8U52B37b00MCcuQXXswQac6lQKdtHFjke9LO0U7w6sBk3ImPupFNmQNw5mlMipZQZupm8oFyNzStxBzaqz3Og_MJSUj1kBX36tiyX6tU8b6pCmW65cyGDHUH5BqrvHw_ZqdIoiot_DrCSpEsLNI6cQaWJhaxMuavneCDH5FJd5nmP6-yIbTrpRzeArodif5EL3Re77lB-zcRVyatPt9GT1afwjJW178ub7FITvl9UnDdFN2CohXxtpIF1mEGfd5BJ3d4EOOzjcGO-tH7RsqfI9dhQKb_k3aIHIGa6gMH28b2FWBjVVH18uyxxWo3OUQuCnQTEUuCG7dMSMNPLjrEMEAelU9L2fxQAqxXHIekkrTixwF8Y07ERgu2Kd9q4n5J9f6ClqqYyZQUsgogI5kpMYnnZ2bW00XkEZcajKG6AoyzMMpX-4zloTe3Z1u_Gp9747tkyCZHKJPnG16Ma7GGq7nOKNIrLCSGt24oZEQBNYVqdOzqIqKoEx3FgOx29Yofw9EMr8WCetZQabwm147XGJKcuS0qXrrcijiVf6SocHzv4W9UE6_AUmm-PLcymt5IPxlM75SK1syJ_FMjvMwLnHYt0m6w1h4rryzVAyLwoaWhUqBDAwJnWEAlLTFjnFIkbjrktz0NrGFK9Ki4X5GcA6nA05eVhGUHDCpDsqnzv24JzL40ohEEDEZ6uR4Jdkw2e1azz-p7xIw1sW63O35K2RX899K-yg96CNVfbftSyvo-gISnXs_gATG4TzGmHnMETobugd1CuKKgBbiu4hLWSYVrwYaugZTKTrOVqkLXlNekD9FIhBxGUIrJIL0pngLYL276XQ6UaPcAr3AtIpqZm3wU1tT83C0A0X0XpBPeWVQfH9UHPyycMnc1DdbvWRR52GGG8T2s59PPwPBWJ7b4RIySkkthFpl99OteCvPSea0_P9aiMuHo5nEtI1uyFNEJn24AnmkxKS9DeK7vdsnukehMGEfZ9r2817kpsPxkGocyhzohjNsJhZn7APEQA7gFJRn8OBdtoQzJBWzoEBn-WPI4m-O0uC1gnww9ZqWngmGwaM8IS958ogIOKrv8XpNmHALdrRsO3EWhWCe5zXXNnCpHG3_33iJ9Dtwdrcp4x2pcuw3TUvmAWmwJPOVccNJg9vb6ZIGAuW4epn0SeVxPC_puLn7mZKbDWdtdMXHbFdu5pIVVoL-EVEXstwBCMMEUqUklxmCYikCHaJ56Cvd_MbIzwBd5Csb66uqaw0_v71PAacp340IeCaay5efBkN3q6TzAoVl62vgoN_OYYoTEtrsHkFa-D6bOnOPa5yOrV3dzfcjDNsXzmnhuFN3qaR3TGHj8FzntwGftRGZ80iwHOESez0cH6DzhrOnmDOIuMyHnAru9lzbk2DXzTak2dUS_fjRP69tR6r5z8_d-qZGdkTuHuexnWhH_78FFXkF5ueKbuWj6IouiarbhYFkUxKJL_4npzZhbKaw8-p5jllkqKO2FTDznDdGz_0q3kpq1VXVatBolR5P7t6xJKpw4L7VIxNQFp7C8El1ThWRTvkvSQVBaXeg1CBVzORxLV8k-qZHOLY-xiLNM0wwXpA2nbw-hkc1ru0RGHdYlR_tg1-VwINsJqi2DOtoO85ekNrL86vvCH7FI3Z2vSUCDFwDHZG3eXXg2mNLOry7SZ0DetGgWRkiBWEDR6mxkFzW6U4V8TSX-1kvL4LwLw8ov5zBFNnBC- -DFd_HLGQN01HVecxxRwL5GKnXuJF8nXUcloxPZEGHPwXDhsN1BzhAJq9CsyfCCseIlI_Q_wddmys9iFxVTVu9TokJNJA237GXqNzyHS_Dp4KGiv4UA_6pKprzilw-B4uVF493y20mwWyysutPB-uk-9w9i9grsZZE5lU_fbhtaD7sDVEtdXRofMbgh7pBb_m00]--></g></svg>